:FULLY-SPECIFIED
:FORCE-ALL-JOINTS-BE-3DOF
:DEGREES
135
root -3.14532 17.0325 -3.23907 0.338771 8.86062 -5.67658
lfemur -31.3468 -2.97673 -18.8826
ltibia 23.1099 0 0
lfoot -11.0341 10.5571 0.164667
ltoes -0.109972 0 0
rfemur 5.97073 6.21243 24.8384
rtibia 20.7629 0 0
rfoot -10.0621 -2.23211 0.00907262
rtoes -10.4477 0 0
lowerback 7.51819 0.0777472 3.35912
upperback -0.633799 0.653571 4.16967
thorax -4.8639 0.303825 2.39337
lowerneck -15.4748 -3.13331 -8.14482
upperneck 22.5118 -3.02461 3.20281
head 9.90001 -1.72761 2.09505
lclavicle 1.51076e-14 -1.03368e-14 -1.56813e-46
lhumerus -36.1857 21.1056 76.7323
lradius 17.7012 0 0
lwrist -18.2817 0 0
lhand -14.5388 24.6969 0.0593119
lfingers 7.12502 0 0
lthumb 11.6091 54.3458 0.0552702
rclavicle 1.51076e-14 -1.03368e-14 -1.56813e-46
rhumerus -36.7181 -10.1174 -76.8762
rradius 39.9434 0 0
rwrist 0.806184 0 0
rhand -18.8078 15.8608 -0.0654693
rfingers 7.12502 0 0
rthumb 7.48948 -13.9555 -0.0584211
136
root -3.09925 17.0231 -3.03984 0.498152 8.68076 -5.44569
lfemur -31.2015 -3.34114 -18.9613
ltibia 23.1602 0 0
lfoot -11.3975 10.526 0.15566
ltoes 3.29515 0 0
rfemur 6.08574 6.29671 24.4757
rtibia 20.4004 0 0
rfoot -10.244 -1.83912 0.003361
rtoes -10.5238 0 0
lowerback 7.48061 0.224981 3.2357
upperback -0.638214 0.823583 3.98453
thorax -4.83718 0.386973 2.24935
lowerneck -14.7118 -3.05639 -8.46432
upperneck 22.0513 -2.94848 3.40446
head 9.58727 -1.69205 2.22644
lclavicle -1.22253e-14 1.90833e-15 1.8886e-30
lhumerus -36.4834 22.7711 75.2867
lradius 17.1101 0 0
lwrist -19.7655 0 0
lhand -14.0914 23.1195 0.0796675
lfingers 7.12502 0 0
lthumb 12.0405 52.7427 0.0746313
rclavicle -1.22253e-14 1.90833e-15 1.8886e-30
rhumerus -36.4878 -10.3696 -76.8778
rradius 39.5755 0 0
rwrist 0.629642 0 0
rhand -18.2211 15.5965 -0.0470185
rfingers 7.12502 0 0
rthumb 8.05588 -14.2033 -0.0411145
137
root -3.04952 17.0146 -2.84594 0.645109 8.52323 -5.28249
lfemur -30.9255 -3.56309 -19.0188
ltibia 23.584 0 0
lfoot -11.8438 10.4153 0.152098
ltoes 5.01041 0 0
rfemur 6.06314 6.4141 24.1753
rtibia 19.9464 0 0
rfoot -10.0919 -1.35507 0.000159169
rtoes -12.3833 0 0
lowerback 7.49118 0.373963 3.15469
upperback -0.671392 1.01189 3.88483
thorax -4.86864 0.478775 2.17
lowerneck -14.8345 -3.01917 -8.52129
upperneck 22.1343 -2.87326 3.41371
head 9.63739 -1.65861 2.2468
lclavicle 7.25067e-15 -1.04163e-14 -2.50697e-30
lhumerus -36.8523 24.3028 74.0138
lradius 16.6444 0 0
lwrist -21.3099 0 0
lhand -13.3862 21.0857 0.0617665
lfingers 7.12502 0 0
lthumb 12.7206 50.6732 0.0584573
rclavicle 7.25067e-15 -1.04163e-14 -2.50697e-30
rhumerus -36.4046 -10.6341 -76.7608
rradius 39.5564 0 0
rwrist 0.190797 0 0
rhand -16.9721 14.177 -0.0196836
rfingers 7.12502 0 0
rthumb 9.26173 -15.5883 -0.0170889
138
root -2.99587 16.9934 -2.64257 0.756245 8.43493 -5.11323
lfemur -30.5709 -3.0373 -19.4887
ltibia 24.1806 0 0
lfoot -11.7423 9.64752 0.135699
ltoes 2.88378 0 0
rfemur 6.14807 6.53399 23.932
rtibia 19.4469 0 0
rfoot -9.81875 -0.750028 0.00142889
rtoes -13.2117 0 0
lowerback 7.42289 0.488019 3.13767
upperback -0.672509 1.15262 3.78118
thorax -4.82249 0.546344 2.05507
lowerneck -15.2521 -3.09964 -8.61564
upperneck 22.3428 -2.95233 3.53604
head 9.79853 -1.68988 2.29579
lclavicle -1.41087e-14 -6.67122e-14 2.40934e-30
lhumerus -37.2675 25.3848 72.9835
lradius 16.3735 0 0
lwrist -22.1149 0 0
lhand -13.7042 20.0223 0.0283731
lfingers 7.12502 0 0
lthumb 12.4143 49.6324 0.0271156
rclavicle -1.41087e-14 -6.67122e-14 2.40934e-30
rhumerus -36.4842 -10.829 -76.7166
rradius 39.4886 0 0
rwrist -0.025592 0 0
rhand -16.3104 13.5144 -0.0147314
rfingers 7.12502 0 0
rthumb 9.90043 -16.227 -0.013194
139
root -2.94476 16.9862 -2.43169 0.839644 8.37621 -5.16299
lfemur -30.5677 -2.4212 -19.8033
ltibia 25.0769 0 0
lfoot -10.8596 8.03763 0.141889
ltoes 4.5907 0 0
rfemur 6.51722 6.52905 24.0265
rtibia 18.7435 0 0
rfoot -9.30401 -0.389599 0.00582175
rtoes -15.2609 0 0
lowerback 7.36031 0.532515 3.27059
upperback -0.704342 1.21841 3.75345
thorax -4.80929 0.574799 1.94672
lowerneck -16.1771 -3.17236 -8.49985
upperneck 22.9842 -3.02282 3.61091
head 10.211 -1.70783 2.29459
lclavicle -1.72843e-14 2.05941e-14 7.15742e-30
lhumerus -37.6826 25.6291 72.4163
lradius 16.4267 0 0
lwrist -21.5621 0 0
lhand -14.2306 21.0585 0.0229337
lfingers 7.12502 0 0
lthumb 11.9067 50.6987 0.0218726
rclavicle -1.72843e-14 2.05941e-14 7.15742e-30
rhumerus -36.6693 -10.9906 -76.6951
rradius 39.2848 0 0
rwrist 0.097042 0 0
rhand -16.2418 13.6852 -0.0162822
rfingers 7.12502 0 0
rthumb 9.96657 -16.0528 -0.0146448
140
root -2.89564 16.9775 -2.21593 0.736417 8.38845 -4.94957
lfemur -30.2295 -1.71405 -20.6411
ltibia 26.0625 0 0
lfoot -9.73184 6.80707 0.141405
ltoes 5.67121 0 0
rfemur 6.98426 6.40524 23.6737
rtibia 18.044 0 0
rfoot -8.57052 0.143729 0.0140869
rtoes -16.6788 0 0
lowerback 7.38229 0.561843 3.11296
upperback -0.725601 1.24105 3.66831
thorax -4.83212 0.587666 1.94593
lowerneck -16.3305 -3.08508 -8.67929
upperneck 23.058 -2.8726 3.75427
head 10.2615 -1.63733 2.39628
lclavicle 6.82828e-15 -2.78298e-15 1.31073e-31
lhumerus -38.0659 25.9044 71.9824
lradius 16.5554 0 0
lwrist -21.458 0 0
lhand -13.7208 21.6352 0.0302542
lfingers 7.12502 0 0
lthumb 12.3981 51.2455 0.0287495
rclavicle 6.82828e-15 -2.78298e-15 1.31073e-31
rhumerus -36.7464 -11.328 -76.4817
rradius 38.9725 0 0
rwrist 0.417212 0 0
rhand -15.8945 13.7322 -0.0113246
rfingers 7.12502 0 0
rthumb 10.3017 -15.9896 -0.00984266
141
root -2.84149 16.9912 -2.00509 0.823967 8.55331 -4.64666
lfemur -30.0658 -1.16477 -21.4774
ltibia 27.1395 0 0
lfoot -8.57813 6.58335 0.152278
ltoes 5.25862 0 0
rfemur 6.76308 6.17235 23.294
rtibia 18.325 0 0
rfoot -8.0729 0.655462 0.0207171
rtoes -17.4148 0 0
lowerback 7.29116 0.590341 2.86459
upperback -0.701343 1.24655 3.6147
thorax -4.75814 0.596418 2.02902
lowerneck -16.7794 -3.13307 -8.78879
upperneck 23.2017 -2.84754 3.67273
head 10.4009 -1.64319 2.38601
lclavicle 4.4155e-14 1.85267e-14 3.43938e-30
lhumerus -38.2654 26.7964 71.4116
lradius 16.5087 0 0
lwrist -22.2755 0 0
lhand -13.2707 21.5745 0.0258919
lfingers 7.12502 0 0
lthumb 12.8322 51.1587 0.0246897
rclavicle 4.4155e-14 1.85267e-14 3.43938e-30
rhumerus -36.5122 -11.4403 -76.2532
rradius 38.5282 0 0
rwrist 0.313966 0 0
rhand -15.9314 13.7458 -0.012408
rfingers 7.12502 0 0
rthumb 10.2661 -15.9779 -0.0109282
142
root -2.78708 17.0081 -1.78203 0.794612 8.99114 -4.33252
lfemur -29.7442 -1.10299 -22.0943
ltibia 28.1486 0 0
lfoot -7.92344 7.11814 0.181423
ltoes 4.47013 0 0
rfemur 6.23768 5.72847 23.0933
rtibia 19.4911 0 0
rfoot -7.71296 1.02547 0.0283566
rtoes -19.6905 0 0
lowerback 7.20101 0.57777 2.4662
upperback -0.70483 1.18744 3.57777
thorax -4.71952 0.576924 2.22091
lowerneck -16.337 -3.15426 -8.93549
upperneck 23.1173 -2.86084 3.61446
head 10.2855 -1.66958 2.39119
lclavicle 3.56322e-15 -2.3059e-14 -4.5115e-31
lhumerus -38.5772 27.837 70.6024
lradius 16.3184 0 0
lwrist -23.3475 0 0
lhand -13.8727 23.1399 0.0198805
lfingers 7.12502 0 0
lthumb 12.2518 52.7597 0.0188926
rclavicle 3.56322e-15 -2.3059e-14 -4.5115e-31
rhumerus -36.6164 -11.5246 -76.0764
rradius 38.2312 0 0
rwrist 0.165602 0 0
rhand -16.3292 13.4693 -0.0133151
rfingers 7.12502 0 0
rthumb 9.88227 -16.2727 -0.011779
143
root -2.73861 17.0096 -1.55274 0.647559 9.66019 -3.95908
lfemur -29.234 -1.58839 -22.5226
ltibia 29.0848 0 0
lfoot -7.88638 7.06895 0.177622
ltoes 4.31273 0 0
rfemur 5.90903 5.10727 22.9596
rtibia 20.5141 0 0
rfoot -6.88872 1.63266 0.0412281
rtoes -20.0087 0 0
lowerback 7.30296 0.48771 2.07384
upperback -0.798351 1.03735 3.47781
thorax -4.87821 0.509241 2.34895
lowerneck -15.4589 -3.20925 -9.28551
upperneck 22.8313 -2.98993 3.87079
head 10.0351 -1.72615 2.52376
lclavicle 8.74156e-15 -3.36344e-14 -8.24286e-30
lhumerus -39.0337 28.5464 69.5609
lradius 16.0881 0 0
lwrist -24.7508 0 0
lhand -14.2497 24.1054 0.0177029
lfingers 7.12502 0 0
lthumb 11.8882 53.7461 0.0167122
rclavicle 8.74156e-15 -3.36344e-14 -8.24286e-30
rhumerus -37.085 -12.0184 -75.8827
rradius 37.8981 0 0
rwrist 0.485813 0 0
rhand -16.4886 13.169 -0.0138857
rfingers 7.12502 0 0
rthumb 9.72858 -16.5807 -0.0124165
144
root -2.68825 17.0078 -1.34109 0.638496 10.2293 -3.48999
lfemur -28.7765 -1.89291 -23.0736
ltibia 29.83 0 0
lfoot -7.93602 5.62807 0.122924
ltoes 3.55458 0 0
rfemur 5.16446 4.66552 22.6397
rtibia 21.9065 0 0
rfoot -5.91047 1.46247 0.080359
rtoes -21.722 0 0
lowerback 7.41781 0.40457 1.77032
upperback -0.907374 0.901419 3.29715
thorax -5.05509 0.44417 2.33972
lowerneck -15.6202 -3.18856 -9.00365
upperneck 23.1182 -2.99931 3.80084
head 10.1626 -1.7165 2.45437
lclavicle 9.94174e-14 -4.45278e-14 6.40882e-30
lhumerus -39.5806 29.7175 68.1267
lradius 15.7956 0 0
lwrist -26.9429 0 0
lhand -14.2802 24.3503 0.0142078
lfingers 7.12502 0 0
lthumb 11.8588 53.993 0.0134127
rclavicle 9.94174e-14 -4.45278e-14 6.40882e-30
rhumerus -37.3768 -12.8359 -75.5938
rradius 37.3526 0 0
rwrist 1.08844 0 0
rhand -16.6379 13.1607 -0.0162865
rfingers 7.12502 0 0
rthumb 9.58446 -16.5964 -0.014886
145
root -2.63351 17.0057 -1.13536 0.582789 10.586 -2.88764
lfemur -28.2336 -1.85236 -23.8325
ltibia 30.3337 0 0
lfoot -7.80193 4.36335 0.0885309
ltoes 2.23437 0 0
rfemur 4.08501 4.46919 22.0004
rtibia 23.6188 0 0
rfoot -4.60447 1.90876 0.107967
rtoes -23.888 0 0
lowerback 7.51484 0.357796 1.35334
upperback -0.971113 0.796935 3.07358
thorax -5.16262 0.397994 2.34942
lowerneck -16.3139 -3.35802 -8.84719
upperneck 23.548 -3.21654 3.81515
head 10.4624 -1.80007 2.40452
lclavicle -1.63401e-14 2.29795e-14 -9.5548e-33
lhumerus -40.0585 30.7906 66.9853
lradius 15.7338 0 0
lwrist -28.5277 0 0
lhand -14.4045 25.2321 0.0145609
lfingers 7.12502 0 0
lthumb 11.7391 54.8811 0.0136288
rclavicle -1.63401e-14 2.29795e-14 -9.5548e-33
rhumerus -37.6548 -13.7517 -75.2735
rradius 37.0638 0 0
rwrist 1.57306 0 0
rhand -16.6214 13.4513 -0.0201785
rfingers 7.12502 0 0
rthumb 9.60033 -16.3033 -0.0183234
146
root -2.57602 17.0162 -0.925811 0.534971 10.8805 -2.54177
lfemur -27.5024 -1.67728 -24.3389
ltibia 30.6549 0 0
lfoot -7.61367 4.03783 0.0829004
ltoes 1.73731 0 0
rfemur 2.88043 4.27423 21.5891
rtibia 25.36 0 0
rfoot -2.3651 2.72192 0.147494
rtoes -22.0669 0 0
lowerback 7.49512 0.32893 1.09663
upperback -0.969886 0.728832 2.99408
thorax -5.1364 0.370378 2.41965
lowerneck -16.5669 -3.45314 -8.97081
upperneck 23.6579 -3.30893 3.88392
head 10.5619 -1.8437 2.43648
lclavicle 1.74235e-14 -1.69762e-14 2.05147e-30
lhumerus -40.7132 32.2652 65.5986
lradius 15.7175 0 0
lwrist -30.5286 0 0
lhand -14.2015 24.7071 0.0118172
lfingers 7.12502 0 0
lthumb 11.9347 54.3458 0.011171
rclavicle 1.74235e-14 -1.69762e-14 2.05147e-30
rhumerus -37.9364 -14.4762 -74.9109
rradius 36.9905 0 0
rwrist 1.82595 0 0
rhand -16.6065 13.4356 -0.0181368
rfingers 7.12502 0 0
rthumb 9.61456 -16.3153 -0.0158049
147
root -2.51828 17.0479 -0.716035 0.579302 11.1504 -2.17892
lfemur -26.5187 -1.5464 -24.7663
ltibia 30.7846 0 0
lfoot -7.33753 3.79878 0.0675001
ltoes 2.09631 0 0
rfemur 1.64961 4.32702 21.276
rtibia 27.013 0 0
rfoot 0.724872 3.08487 0.225082
rtoes -17.4591 0 0
lowerback 7.48558 0.399925 0.855671
upperback -0.926181 0.789499 2.86402
thorax -5.08798 0.405151 2.41031
lowerneck -15.3999 -3.32422 -9.29875
upperneck 22.8952 -3.20176 4.09635
head 10.0684 -1.79711 2.579
lclavicle 4.15907e-14 -9.8597e-15 -3.09186e-30
lhumerus -41.2086 33.5368 64.1438
lradius 15.6464 0 0
lwrist -32.72 0 0
lhand -13.9414 23.6594 0.00878959
lfingers 7.12502 0 0
lthumb 12.1856 53.2841 0.00839804
rclavicle 4.15907e-14 -9.8597e-15 -3.09186e-30
rhumerus -38.2125 -15.2447 -74.6179
rradius 36.7745 0 0
rwrist 1.75693 0 0
rhand -16.7315 12.8978 -0.0124215
rfingers 7.12502 0 0
rthumb 9.49397 -16.858 -0.0101888
